<?xml version="1.0" ?><svg viewBox="0 0 32 32" xmlns="http://www.w3.org/2000/svg"><title/><g data-name="emoji 1" id="emoji_1" fill="#FFFFFF"><path d="M27,10a1,1,0,0,1-.84-.46c-.15-.24-.65-.85-1.2-1.5A1,1,0,0,1,25,6.64a1,1,0,0,1,1.41.1C26.67,7,27.49,8,27.8,8.47a1,1,0,0,1-.3,1.38A1,1,0,0,1,27,10Z"/><path d="M16,30A14,14,0,1,1,23.83,4.39a1,1,0,1,1-1.12,1.66A12,12,0,1,0,28,16a1,1,0,0,1,2,0A14,14,0,0,1,16,30Z"/><path d="M11,16a3,3,0,1,1,3-3A3,3,0,0,1,11,16Zm0-4a1,1,0,1,0,1,1A1,1,0,0,0,11,12Z"/><path d="M21,16a3,3,0,1,1,3-3A3,3,0,0,1,21,16Zm0-4a1,1,0,1,0,1,1A1,1,0,0,0,21,12Z"/><path d="M16,23.89a10.86,10.86,0,0,1-7.7-3.18,1,1,0,0,1,0-1.41,1,1,0,0,1,1.42,0,8.9,8.9,0,0,0,12.56,0,1,1,0,0,1,1.42,0,1,1,0,0,1,0,1.41A10.86,10.86,0,0,1,16,23.89Z"/></g></svg>